<?xml version="1.0" encoding="UTF-8"?>
<svg xmlns="http://www.w3.org/2000/svg"
     viewBox="-50 -250 1050 350"
     width="100%">
   <rect x="-150" y="-350" width="1200" height="450" fill="#3e3d3e"/>
   <line x1="0"
         x2="0"
         y1="0"
         y2="-280"
         stroke="white"
         stroke-linecap="square"/>
   <line x1="0"
         x2="1050"
         y1="0"
         y2="0"
         stroke="white"
         stroke-linecap="square"/>
   <text x="375"
         y="60"
         fill="white"
         font-size="18px"
         font-family="arial">Stylistic Techniques</text>
   <text x="455"
         y="-300"
         fill="white"
         font-size="18px"
         font-family="arial"
         text-anchor="middle">Occurences of Stylistic Technqiues in "Ready to Die"</text>
   <text x="-40"
         y="-120"
         text-anchor="middle"
         writing-mode="tb"
         font-size="18px"
         font-family="arial"
         fill="white"># of Times Present in the Album</text>
   <line x1="0"
         x2="1050"
         y1="-40"
         y2="-40"
         stroke-dasharray="8 4"
         stroke="gray"/>
   <line x1="0"
         x2="1050"
         y1="-80"
         y2="-80"
         stroke-dasharray="8 4"
         stroke="gray"/>
   <text x="-20" y="-40" fill="white" font-family="arial">10</text>
   <line x1="0"
         x2="1050"
         y1="-120"
         y2="-120"
         stroke-dasharray="8 4"
         stroke="gray"/>
   <text x="-20" y="-80" fill="white" font-family="arial">20</text>
   <line x1="0"
         x2="1050"
         y1="-160"
         y2="-160"
         stroke-dasharray="8 4"
         stroke="gray"/>
   <text x="-20" y="-120" fill="white" font-family="arial">30</text>
   <line x1="0"
         x2="1050"
         y1="-200"
         y2="-200"
         stroke-dasharray="8 4"
         stroke="gray"/>
   <text x="-20" y="-160" fill="white" font-family="arial">40</text>
   <line x1="0"
         x2="1050"
         y1="-240"
         y2="-240"
         stroke-dasharray="8 4"
         stroke="gray"/>
   <text x="-20" y="-200" fill="white" font-family="arial">50</text>
   <line x1="0"
         x2="1050"
         y1="-280"
         y2="-280"
         stroke-dasharray="8 4"
         stroke="gray"/>
   <text x="-20" y="-240" fill="white" font-family="arial">60</text>
   <text x="-20" y="-280" fill="white" font-family="arial">70</text>
   <rect x="35" y="-176" width="20" height="176" fill="#ba2828"/>
   <text x="45"
         y="14"
         fill="white"
         text-anchor="middle"
         font-family="arial">Allusion</text>
   <rect x="135 " y="-256" width="20" height="256" fill="#ba2828"/>
   <text x="145"
         y="14"
         fill="white"
         text-anchor="middle"
         font-family="arial">Repetition</text>
   <rect x="235 " y="-176" width="20" height="176" fill="#ba2828"/>
   <text x="245"
         y="14"
         fill="white"
         text-anchor="middle"
         font-family="arial">Colloquialism</text>
   <rect x="335 " y="-20" width="20" height="20" fill="#ba2828"/>
   <text x="345"
         y="14"
         fill="white"
         text-anchor="middle"
         font-family="arial">Metaphor</text>
   <rect x="435 " y="-0" width="20" height="0" fill="#ba2828"/>
   <text x="445"
         y="14"
         fill="white"
         text-anchor="middle"
         font-family="arial">Similie</text>
   <rect x="535 " y="-20" width="20" height="20" fill="#ba2828"/>
   <text x="545"
         y="14"
         fill="white"
         text-anchor="middle"
         font-family="arial">Hyperbole</text>
   <rect x="635 " y="-60" width="20" height="60" fill="#ba2828"/>
   <text x="645"
         y="14"
         fill="white"
         text-anchor="middle"
         font-family="arial">Imagery</text>
   <rect x="735 " y="-8" width="20" height="8" fill="#ba2828"/>
   <text x="745"
         y="14"
         fill="white"
         text-anchor="middle"
         font-family="arial">Double-Entendre</text>
   <rect x="835 " y="-8" width="20" height="8" fill="#ba2828"/>
   <text x="845"
         y="14"
         fill="white"
         text-anchor="middle"
         font-family="arial">Dialogue</text>
   <rect x="935 " y="-4" width="20" height="4" fill="#ba2828"/>
   <text x="945"
         y="14"
         fill="white"
         text-anchor="middle"
         font-family="arial">Onomatopoeia</text>/&gt;
        </svg>
