<?xml version="1.0" encoding="UTF-8"?>
<svg xmlns="http://www.w3.org/2000/svg"
     viewBox="-100 -300 1100 400"
     width="100%">
   <rect x="-100" y="-300" width="1200" height="400" fill="#3e3d3e"/>
   <line x1="0"
         x2="0"
         y1="0"
         y2="-280"
         stroke="white"
         stroke-linecap="square"/>
   <line x1="0"
         x2="1050"
         y1="0"
         y2="0"
         stroke="white"
         stroke-linecap="square"/>
   <text x="375"
         y="60"
         fill="white"
         font-size="18px"
         font-family="arial">Themes</text>
   <text x="375"
         y="-350"
         fill="white"
         font-size="18px"
         font-family="arial"
         text-anchor="middle">Occurences of Themes in "Ready to Die"</text>
   <text x="-60"
         y="-120"
         text-anchor="middle"
         writing-mode="tb"
         font-size="18px"
         font-family="arial"
         fill="white"># of Times Present in the Album</text>
   <line x1="0"
         x2="1050"
         y1="-40"
         y2="-40"
         stroke-dasharray="8 4"
         stroke="gray"/>
   <line x1="0"
         x2="1050"
         y1="-80"
         y2="-80"
         stroke-dasharray="8 4"
         stroke="gray"/>
   <text x="-20" y="-40" fill="white" font-family="arial">10</text>
   <line x1="0"
         x2="1050"
         y1="-120"
         y2="-120"
         stroke-dasharray="8 4"
         stroke="gray"/>
   <text x="-20" y="-80" fill="white" font-family="arial">20</text>
   <line x1="0"
         x2="1050"
         y1="-160"
         y2="-160"
         stroke-dasharray="8 4"
         stroke="gray"/>
   <text x="-20" y="-120" fill="white" font-family="arial">30</text>
   <line x1="0"
         x2="1050"
         y1="-200"
         y2="-200"
         stroke-dasharray="8 4"
         stroke="gray"/>
   <text x="-20" y="-160" fill="white" font-family="arial">40</text>
   <line x1="0"
         x2="1050"
         y1="-240"
         y2="-240"
         stroke-dasharray="8 4"
         stroke="gray"/>
   <text x="-20" y="-200" fill="white" font-family="arial">50</text>
   <line x1="0"
         x2="1050"
         y1="-280"
         y2="-280"
         stroke-dasharray="8 4"
         stroke="gray"/>
   <text x="-20" y="-240" fill="white" font-family="arial">60</text>
   <text x="-20" y="-280" fill="white" font-family="arial">70</text>
   <rect x="20" y="-32" width="20" height="32" fill="white"/>
   <rect x="20" y="-32" width="20" height="0" fill="red"/>
   <rect x="20" y="-0" width="20" height="0" fill="blue"/>
   <rect x="20" y="-92" width="20" height="60" fill="blue"/>
   <rect x="20" y="-0" width="20" height="0" fill="green"/>
   <rect x="20" y="-60" width="20" height="0" fill="orange"/>
   <rect x="20" y="-60" width="20" height="0" fill="orange"/>
   <rect x="20" y="-60" width="20" height="0" fill="orange"/>
   <rect x="20" y="-60" width="20" height="0" fill="orange"/>
   <text x="30"
         y="14"
         fill="white"
         text-anchor="middle"
         font-family="arial">Sex</text>
   <rect x="20" y="-0" width="20" height="0" fill="white"/>
   <rect x="80" y="-16" width="20" height="16" fill="red"/>
   <rect x="20" y="-16" width="20" height="0" fill="red"/>
   <rect x="80" y="=16" width="20" height="0"/>
   <rect x="80" y="=16" width="20" height="0"/>
   <rect x="80" y="=16" width="20" height="0"/>
   <rect x="26" y="16" width="20" height="0"/>
   <rect x="80" y="=16" width="20" height="0"/>
   <rect x="80" y="-20" width="20" height="4" fill="white"/>
   <text x="40"
         y="14"
         fill="white"
         text-anchor="middle"
         font-family="arial">Violence</text>
   <rect x="140" y="-0" width="20" height="0"/>
   <rect x="140" y="-36" width="20" height="36" fill="red"/>
   <rect x="140" y="-36" width="20" height="0" fill="red"/>
   <rect x="140" y="-36" width="20" height="0" fill="red"/>
   <rect x="140" y="-36" width="20" height="0" fill="red"/>
   <rect x="140" y="-36" width="20" height="0" fill="red"/>
   <rect x="140" y="-36" width="20" height="0" fill="red"/>
   <rect x="140" y="-36" width="20" height="0" fill="red"/>
   <rect x="140" y="-36" width="20" height="0" fill="red"/>
   <text x="50"
         y="14"
         fill="white"
         text-anchor="middle"
         font-family="arial">Drugs</text>
   <rect x="200" y="-0" width="$barWidth" height="0"/>
   <rect x="200" y="-4" width="$barWidth" height="4" fill="red"/>
   <rect x="200" y="-4" width="20" height="0" fill="red"/>
   <rect x="200" y="-4" width="20" height="0" fill="red"/>
   <rect x="200" y="-4" width="20" height="0" fill="red"/>
   <rect x="200" y="-4" width="20" height="0" fill="red"/>
   <rect x="200" y="-4" width="20" height="0" fill="red"/>
   <rect x="200" y="-4" width="20" height="0" fill="red"/>
   <rect x="200" y="-4" width="20" height="0" fill="red"/>
   <text x="60"
         y="14"
         fill="white"
         text-anchor="middle"
         font-family="arial">Family</text>
   <rect x="260" y="-0" width="20" height="0"/>
   <rect x="260" y="-4" width="20" height="4" fill="red"/>
   <rect x="260" y="-4" width="20" height="0" fill="white"/>
   <rect x="260" y="-4" width="20" height="0" fill="white"/>
   <rect x="260" y="-4" width="20" height="0" fill="white"/>
   <rect x="260" y="-4" width="20" height="0" fill="white"/>
   <rect x="260" y="-4" width="20" height="0" fill="white"/>
   <rect x="260" y="-4" width="20" height="0" fill="white"/>
   <rect x="260" y="-4" width="20" height="0" fill="white"/>
   <text x="60"
         y="14"
         fill="white"
         text-anchor="middle"
         font-family="arial">Reflection</text>
   <rect x="320" y="-0" width="20" height="0"/>
   <rect x="320" y="-4" width="20" height="4" fill="red"/>
   <rect x="320" y="-4" width="20" height="0" fill="red"/>
   <rect x="320" y="-4" width="20" height="0" fill="red"/>
   <rect x="320" y="-4" width="20" height="0" fill="red"/>
   <rect x="320" y="-4" width="20" height="0" fill="red"/>
   <rect x="320" y="-4" width="20" height="0" fill="red"/>
   <rect x="320" y="-4" width="20" height="0" fill="red"/>
   <rect x="320" y="-4" width="20" height="0" fill="red"/>
</svg>
