<?xml version="1.0" encoding="UTF-8"?>
<svg xmlns="http://www.w3.org/2000/svg"
     viewBox="-100 -300 1100 400"
     width="100%">
   <rect x="-100" y="-300" width="1200" height="400" fill="#3e3d3e"/>
   <line x1="0"
         x2="750"
         y1="0"
         y2="0"
         stroke="white"
         stroke-linecap="square"/>
   <text x="375"
         y="60"
         fill="white"
         font-size="18px"
         font-family="arial">Themes</text>
   <text x="375"
         y="-250"
         fill="white"
         font-size="18px"
         font-family="arial"
         text-anchor="middle">Occurences of Themes in "Ready to Die"</text>
   <text x="-60"
         y="-120"
         text-anchor="middle"
         writing-mode="tb"
         font-size="18px"
         font-family="arial"
         fill="white"># of Times Present in the Album</text>
   <line x1="0"
         x2="0"
         y1="0"
         y2="-240"
         stroke="white"
         stroke-linecap="square"/>
   <line x1="0"
         x2="750"
         y1="-30"
         y2="-30"
         stroke-dasharray="8 4"
         stroke="gray"/>
   <text x="-20" y="-30" fill="white" font-family="arial">10</text>
   <line x1="0"
         x2="750"
         y1="-60"
         y2="-60"
         stroke-dasharray="8 4"
         stroke="gray"/>
   <text x="-20" y="-60" fill="white" font-family="arial">20</text>
   <line x1="0"
         x2="750"
         y1="-90"
         y2="-90"
         stroke-dasharray="8 4"
         stroke="gray"/>
   <text x="-20" y="-90" fill="white" font-family="arial">30</text>
   <line x1="0"
         x2="750"
         y1="-120"
         y2="-120"
         stroke-dasharray="8 4"
         stroke="gray"/>
   <text x="-20" y="-120" fill="white" font-family="arial">40</text>
   <line x1="0"
         x2="750"
         y1="-150"
         y2="-150"
         stroke-dasharray="8 4"
         stroke="gray"/>
   <text x="-20" y="-150" fill="white" font-family="arial">50</text>
   <line x1="0"
         x2="750"
         y1="-180"
         y2="-180"
         stroke-dasharray="8 4"
         stroke="gray"/>
   <text x="-20" y="-180" fill="white" font-family="arial">60</text>
   <line x1="0"
         x2="750"
         y1="-210"
         y2="-210"
         stroke-dasharray="8 4"
         stroke="gray"/>
   <text x="-20" y="-210" fill="white" font-family="arial">70</text>
   <line x1="0"
         x2="750"
         y1="-240"
         y2="-240"
         stroke-dasharray="8 4"
         stroke="gray"/>
   <text x="-20" y="-240" fill="white" font-family="arial">80</text>
   <rect x="20" y="-176" width="20" height="176" fill="#ba2828"/>
   <text x="30"
         y="14"
         fill="white"
         text-anchor="middle"
         font-family="arial">Sex</text>
   <rect x="120 " y="-156" width="20" height="156" fill="#ba2828"/>
   <text x="130"
         y="14"
         fill="white"
         text-anchor="middle"
         font-family="arial">Violence</text>
   <rect x="220 " y="-160" width="20" height="160" fill="#ba2828"/>
   <text x="230"
         y="14"
         fill="white"
         text-anchor="middle"
         font-family="arial">Drugs</text>
   <rect x="320 " y="-60" width="20" height="60" fill="#ba2828"/>
   <text x="330"
         y="14"
         fill="white"
         text-anchor="middle"
         font-family="arial">Family</text>
   <rect x="420 " y="-60" width="20" height="60" fill="#ba2828"/>
   <text x="430"
         y="14"
         fill="white"
         text-anchor="middle"
         font-family="arial">Reflection</text>
   <rect x="520 " y="-108" width="20" height="108" fill="#ba2828"/>
   <text x="530"
         y="14"
         fill="white"
         text-anchor="middle"
         font-family="arial">Relationships</text>
   <rect x="620 " y="-140" width="20" height="140" fill="#ba2828"/>
   <text x="630"
         y="14"
         fill="white"
         text-anchor="middle"
         font-family="arial">Money</text>
   <rect x="720 " y="-28" width="20" height="28" fill="#ba2828"/>
   <text x="730"
         y="14"
         fill="white"
         text-anchor="middle"
         font-family="arial">Home</text>
</svg>
