<?xml version="1.0" encoding="UTF-8"?>
<svg xmlns="http://www.w3.org/2000/svg"
     viewBox="-150 -350 1250 500"
     width="100%">
   <rect x="-150" y="-320" width="1250" height="410" fill="#3e3d3e"/>
   <line x1="0"
         x2="1050"
         y1="0"
         y2="0"
         stroke="white"
         stroke-linecap="square"/>
   <text x="520"
         y="60"
         fill="white"
         font-size="18px"
         font-family="arial"
         text-anchor="middle">Themes</text>
   <text x="520"
         y="-270"
         fill="white"
         font-size="18px"
         font-family="arial"
         text-anchor="middle">Occurences of Themes in "Ready to Die"</text>
   <text x="-60"
         y="-120"
         text-anchor="middle"
         writing-mode="tb"
         font-size="18px"
         font-family="arial"
         fill="white"># of Times Present in the Album</text>
   <line x1="0"
         x2="0"
         y1="0"
         y2="-240"
         stroke="white"
         stroke-linecap="square"/>
   <line x1="0"
         x2="1050"
         y1="-30"
         y2="-30"
         stroke-dasharray="8 4"
         stroke="gray"/>
   <text x="-20" y="-30" fill="white" font-family="arial">10</text>
   <line x1="0"
         x2="1050"
         y1="-60"
         y2="-60"
         stroke-dasharray="8 4"
         stroke="gray"/>
   <text x="-20" y="-60" fill="white" font-family="arial">20</text>
   <line x1="0"
         x2="1050"
         y1="-90"
         y2="-90"
         stroke-dasharray="8 4"
         stroke="gray"/>
   <text x="-20" y="-90" fill="white" font-family="arial">30</text>
   <line x1="0"
         x2="1050"
         y1="-120"
         y2="-120"
         stroke-dasharray="8 4"
         stroke="gray"/>
   <text x="-20" y="-120" fill="white" font-family="arial">40</text>
   <line x1="0"
         x2="1050"
         y1="-150"
         y2="-150"
         stroke-dasharray="8 4"
         stroke="gray"/>
   <text x="-20" y="-150" fill="white" font-family="arial">50</text>
   <line x1="0"
         x2="1050"
         y1="-180"
         y2="-180"
         stroke-dasharray="8 4"
         stroke="gray"/>
   <text x="-20" y="-180" fill="white" font-family="arial">60</text>
   <line x1="0"
         x2="1050"
         y1="-210"
         y2="-210"
         stroke-dasharray="8 4"
         stroke="gray"/>
   <text x="-20" y="-210" fill="white" font-family="arial">70</text>
   <line x1="0"
         x2="1050"
         y1="-240"
         y2="-240"
         stroke-dasharray="8 4"
         stroke="gray"/>
   <text x="-20" y="-240" fill="white" font-family="arial">80</text>
   <rect x="30" y="-176" width="20" height="176" fill="#ba2828"/>
   <text x="40"
         y="14"
         fill="white"
         text-anchor="middle"
         font-family="arial"
         font-size="16px"
         font-weight="bold">Sex</text>
   <rect x="160 " y="-156" width="20" height="156" fill="#ba2828"/>
   <text x="170"
         y="14"
         fill="white"
         text-anchor="middle"
         font-family="arial"
         font-size="16px"
         font-weight="bold">Violence</text>
   <rect x="290 " y="-160" width="20" height="160" fill="#ba2828"/>
   <text x="300"
         y="14"
         fill="white"
         text-anchor="middle"
         font-family="arial"
         font-size="16px"
         font-weight="bold">Drugs</text>
   <rect x="420 " y="-60" width="20" height="60" fill="#ba2828"/>
   <text x="430"
         y="14"
         fill="white"
         text-anchor="middle"
         font-family="arial"
         font-size="16px"
         font-weight="bold">Family</text>
   <rect x="550 " y="-60" width="20" height="60" fill="#ba2828"/>
   <text x="560"
         y="14"
         fill="white"
         text-anchor="middle"
         font-family="arial"
         font-size="16px"
         font-weight="bold">Reflection</text>
   <rect x="680 " y="-108" width="20" height="108" fill="#ba2828"/>
   <text x="690"
         y="14"
         fill="white"
         text-anchor="middle"
         font-family="arial"
         font-size="16px"
         font-weight="bold">Relationships</text>
   <rect x="810 " y="-140" width="20" height="140" fill="#ba2828"/>
   <text x="820"
         y="14"
         fill="white"
         text-anchor="middle"
         font-family="arial"
         font-size="16px"
         font-weight="bold">Money</text>
   <rect x="940 " y="-28" width="20" height="28" fill="#ba2828"/>
   <text x="950"
         y="14"
         fill="white"
         text-anchor="middle"
         font-family="arial"
         font-size="16px"
         font-weight="bold">Home</text>
</svg>
